<?xml version="1.0" ?><svg data-name="Layer 32" id="Layer_32" viewBox="0 0 50 50" xmlns="http://www.w3.org/2000/svg"><defs></defs><title/><path class="cls-1" d="M47.9,19.4A2,2,0,0,0,46,18H31.4L26.9,3.4a2,2,0,0,0-3.8,0L18.6,18H4a2,2,0,0,0-1.2,3.6l11.9,9.1L10.1,45.4a2,2,0,0,0,3.1,2.2l11.8-9,11.8,9a2,2,0,0,0,3.1-2.2L35.3,30.7l11.9-9.1A2,2,0,0,0,47.9,19.4Zm-16.1,9a2.2,2.2,0,0,0-.6.7,2,2,0,0,0-.1,1.5l3.1,10-8-6.1a2,2,0,0,0-2.4,0l-8,6.1,3.1-10a2.1,2.1,0,0,0-.2-1.5,2,2,0,0,0-.6-0.7L9.9,22H20A2,2,0,0,0,22,20.6l3-9.9,3,9.9A2,2,0,0,0,30,22H40.1Z"/></svg>